<svg width="100%" height="100%" viewBox="0 0 400 400" version="1.1" xmlns="http://www.w3.org/2000/svg"><g transform="scale(0.9) translate(40, 40)">
    <ellipse cx="212.5" cy="214.511" rx="179.5" ry="172.511" fill="#4e9a9a"/>
    <path d="M179.57 350.15L171.34 350.15L179.95 305.74Q181.68 296.89 183.06 291.39L183.06 291.39Q178.71 300.43 176.13 304.79L176.13 304.79L149.90 350.15L143.97 350.15L135.12 304.79Q134.83 303.40 133.16 291.39L133.16 291.39Q132.72 294.26 131.72 300.36Q130.71 306.46 122.15 350.15L122.15 350.15L114.01 350.15L127.08 282.73L138.37 282.73L147.42 329.48Q147.80 331.34 148.95 339.29L148.95 339.29L153.92 329.10L180.38 282.73L192.63 282.73L179.57 350.15ZM244.03 317.47L244.03 317.47Q244.03 323.69 242.11 330.41Q240.20 337.13 236.63 341.80Q233.07 346.47 227.90 348.79Q222.73 351.11 216.13 351.11L216.13 351.11Q206.75 351.11 201.30 345.46Q195.84 339.81 195.84 330.10L195.84 330.10Q196.03 320.34 199.38 312.78Q202.73 305.22 208.67 301.34Q214.60 297.47 223.36 297.47L223.36 297.47Q233.40 297.47 238.72 302.71Q244.03 307.94 244.03 317.47ZM235.13 317.47L235.13 317.47Q235.13 303.78 223.26 303.78L223.26 303.78Q216.80 303.78 212.90 307.11Q209 310.43 206.85 317.18Q204.69 323.93 204.69 330.24L204.69 330.24Q204.69 337.33 207.76 341.03Q210.82 344.74 216.66 344.74L216.66 344.74Q221.58 344.74 224.58 343.09Q227.57 341.44 229.82 337.92Q232.06 334.41 233.48 328.95Q234.89 323.50 235.13 317.47ZM266.33 351.15L266.33 351.15Q258.81 351.15 254.63 346.63Q250.44 342.11 250.44 334.22L250.44 334.22Q250.44 324.50 253.38 315.39Q256.33 306.27 261.66 301.87Q267.00 297.47 275.27 297.47L275.27 297.47Q281.16 297.47 284.87 299.95Q288.58 302.44 290.11 306.94L290.11 306.94L290.35 306.94L291.69 299.19L295.61 279.14L304.22 279.14L292.50 339.48Q291.11 346.23 290.68 350.15L290.68 350.15L282.45 350.15Q282.45 347.71 283.46 342.49L283.46 342.49L283.22 342.49Q279.72 347.04 275.85 349.10Q271.97 351.15 266.33 351.15ZM268.81 344.50L268.81 344.50Q273.55 344.50 276.93 342.57Q280.30 340.63 282.64 336.73Q284.99 332.83 286.33 326.97Q287.67 321.10 287.67 316.46L287.67 316.46Q287.67 310.48 284.63 307.16Q281.59 303.83 276.18 303.83L276.18 303.83Q270.35 303.83 266.95 307.30Q263.55 310.77 261.49 318.64Q259.44 326.51 259.44 332.68L259.44 332.68Q259.44 338.57 261.68 341.54Q263.93 344.50 268.81 344.50Z"/>
    <path d="M175.22 189.19L152.06 189.19L140.38 249.15L131.29 249.15L142.96 189.19L119.80 189.19L121.24 181.73L176.65 181.73L175.22 189.19ZM206.80 197.09L205.22 204.27Q203.11 203.64 200.91 203.64L200.91 203.64Q195.89 203.64 191.85 208.91Q187.80 214.17 186.37 222.16L186.37 222.16L181.10 249.15L172.49 249.15L180.24 209.43L181.44 202.83L182.30 197.37L190.43 197.37L188.76 207.95L188.95 207.95Q192.11 201.59 195.17 199.00Q198.23 196.42 202.25 196.42L202.25 196.42Q204.45 196.42 206.80 197.09L206.80 197.09ZM247.86 249.63L247.86 249.63Q243.41 249.63 241.37 247.79Q239.34 245.94 239.34 242.31L239.34 242.31L239.58 239.24L239.29 239.24Q235.32 245.27 231.06 247.69Q226.80 250.11 220.77 250.11L220.77 250.11Q214.07 250.11 209.89 246.09Q205.70 242.07 205.70 235.85L205.70 235.85Q205.70 226.99 212.04 222.45Q218.38 217.90 232.26 217.71L232.26 217.71L243.36 217.57Q244.27 212.88 244.27 211.49L244.27 211.49Q244.27 207.14 241.73 205.05Q239.19 202.97 234.70 202.97L234.70 202.97Q229.00 202.97 226.08 205.01Q223.16 207.04 221.87 211.20L221.87 211.20L213.35 209.82Q215.51 202.78 220.84 199.60Q226.18 196.42 235.17 196.42L235.17 196.42Q243.36 196.42 248.12 200.25Q252.88 204.07 252.88 210.53L252.88 210.53Q252.88 213.60 251.97 218.05L251.97 218.05L248.43 236.13Q247.90 238.43 247.90 240.35L247.90 240.35Q247.90 243.84 251.78 243.84L251.78 243.84Q253.07 243.84 254.65 243.50L254.65 243.50L253.98 248.86Q250.82 249.63 247.86 249.63ZM240.92 229.48L242.21 223.50L232.69 223.69Q226.99 223.84 223.74 224.72Q220.48 225.61 218.69 226.97Q216.90 228.33 215.87 230.42Q214.84 232.50 214.84 235.46L214.84 235.46Q214.84 239.05 217.16 241.30Q219.48 243.55 223.16 243.55L223.16 243.55Q227.81 243.55 231.54 241.57Q235.27 239.58 237.71 236.37Q240.15 233.17 240.92 229.48L240.92 229.48ZM280.35 186.37L271.73 186.37L273.36 178.14L281.97 178.14L280.35 186.37ZM268.14 249.15L259.58 249.15L269.63 197.37L278.24 197.37L268.14 249.15ZM322.74 249.15L314.08 249.15L320.11 218.29Q320.97 214.07 320.97 211.11L320.97 211.11Q320.97 203.12 312.41 203.12L312.41 203.12Q306.38 203.12 301.78 207.71Q297.19 212.30 295.66 220.15L295.66 220.15L290.01 249.15L281.40 249.15L289.34 208.43Q290.30 203.88 291.21 197.37L291.21 197.37L299.34 197.37Q299.34 197.90 298.84 201.08Q298.34 204.27 298.00 206.23L298.00 206.23L298.15 206.23Q302.12 200.72 306.11 198.59Q310.11 196.47 315.61 196.47L315.61 196.47Q322.70 196.47 326.26 199.96Q329.83 203.45 329.83 210.06L329.83 210.06Q329.83 213.12 328.82 217.90L328.82 217.90L322.74 249.15Z"/>
    <path d="M171.15 148.15L161.29 148.15L149.66 120.16L128.56 120.16L123.15 148.15L114.01 148.15L127.08 80.73L156.36 80.73Q166.60 80.73 172.68 85.61Q178.76 90.49 178.76 98.43L178.76 98.43Q178.76 107.43 173.59 112.69Q168.42 117.96 158.33 119.34L158.33 119.34L171.15 148.15ZM130.00 112.93L152.01 112.93Q160.67 112.93 165.07 109.32Q169.47 105.71 169.47 99.15L169.47 99.15Q169.47 93.79 165.91 90.92Q162.34 88.05 155.26 88.05L155.26 88.05L134.83 88.05L130.00 112.93ZM231.49 124.08L194.02 124.08Q193.74 125.76 193.59 129.49L193.59 129.49Q193.59 135.85 196.77 139.25Q199.96 142.65 206.37 142.65L206.37 142.65Q211.01 142.65 214.79 140.35Q218.57 138.05 220.68 134.08L220.68 134.08L227.28 137.10Q223.79 143.36 218.40 146.24Q213.02 149.11 205.36 149.11L205.36 149.11Q195.75 149.11 190.41 143.77Q185.07 138.44 185.07 128.77L185.07 128.77Q185.07 119.15 188.47 111.52Q191.87 103.89 198.04 99.65Q204.21 95.42 211.92 95.42L211.92 95.42Q221.73 95.42 227.18 100.35Q232.64 105.28 232.64 114.27L232.64 114.27Q232.64 119.30 231.49 124.08L231.49 124.08ZM195.17 117.48L223.88 117.48L224.07 114.03Q224.07 108.10 220.99 104.94Q217.90 101.78 212.11 101.78L212.11 101.78Q205.70 101.78 201.32 105.87Q196.94 109.96 195.17 117.48L195.17 117.48ZM280.63 148.63L280.63 148.63Q276.18 148.63 274.15 146.79Q272.12 144.94 272.12 141.31L272.12 141.31L272.36 138.24L272.07 138.24Q268.10 144.27 263.84 146.69Q259.58 149.11 253.55 149.11L253.55 149.11Q246.85 149.11 242.66 145.09Q238.48 141.07 238.48 134.85L238.48 134.85Q238.48 125.99 244.82 121.45Q251.16 116.90 265.03 116.71L265.03 116.71L276.14 116.57Q277.04 111.88 277.04 110.49L277.04 110.49Q277.04 106.14 274.51 104.05Q271.97 101.97 267.47 101.97L267.47 101.97Q261.78 101.97 258.86 104.01Q255.94 106.04 254.65 110.20L254.65 110.20L246.13 108.82Q248.29 101.78 253.62 98.60Q258.96 95.42 267.95 95.42L267.95 95.42Q276.14 95.42 280.90 99.25Q285.66 103.07 285.66 109.53L285.66 109.53Q285.66 112.60 284.75 117.05L284.75 117.05L281.21 135.13Q280.68 137.43 280.68 139.35L280.68 139.35Q280.68 142.84 284.56 142.84L284.56 142.84Q285.85 142.84 287.43 142.50L287.43 142.50L286.76 147.86Q283.60 148.63 280.63 148.63ZM273.70 128.48L274.99 122.50L265.46 122.69Q259.77 122.84 256.52 123.72Q253.26 124.61 251.47 125.97Q249.67 127.33 248.65 129.42Q247.62 131.50 247.62 134.46L247.62 134.46Q247.62 138.05 249.94 140.30Q252.26 142.55 255.94 142.55L255.94 142.55Q260.58 142.55 264.32 140.57Q268.05 138.58 270.49 135.37Q272.93 132.17 273.70 128.48L273.70 128.48ZM300.92 148.15L292.36 148.15L306.14 77.14L314.75 77.14L300.92 148.15Z"/>
    <rect x="22" y="25" width="125" height="90" fill="#f10045"/>
    <path d="M61.37 59.69L51.27 59.69L51.27 105.20L42.66 105.20L42.66 59.69L35.39 59.69L35.39 53.42L42.66 53.42L42.66 47.58Q42.66 40.50 45.77 37.39Q48.88 34.28 55.29 34.28L55.29 34.28Q58.88 34.28 61.37 34.86L61.37 34.86L61.37 41.41Q59.22 41.03 57.54 41.03L57.54 41.03Q54.24 41.03 52.76 42.70Q51.27 44.38 51.27 48.78L51.27 48.78L51.27 53.42L61.37 53.42L61.37 59.69ZM76.40 42.42L67.78 42.42L67.78 34.19L76.40 34.19L76.40 42.42ZM76.40 105.20L67.78 105.20L67.78 53.42L76.40 53.42L76.40 105.20ZM130.95 105.20L121.33 105.20L107.40 83.95L93.38 105.20L84.10 105.20L102.52 78.59L84.96 53.42L94.48 53.42L107.40 73.57L120.23 53.42L129.85 53.42L112.29 78.50L130.95 105.20Z"/>
</g><circle cx="200" cy="200" r="205" fill="none" stroke="black"/></svg>
