<svg viewBox="0 0 400 400" xmlns="http://www.w3.org/2000/svg"><ellipse cx="212.5" cy="214.511" rx="179.5" ry="172.511" fill="#4e9a9a"/><path d="M179.57 350.15h-8.23l8.61-44.41q1.73-8.85 3.11-14.35-4.35 9.04-6.93 13.4l-26.23 45.36h-5.93l-8.85-45.36q-.29-1.39-1.96-13.4-.44 2.87-1.44 8.97-1.01 6.1-9.57 49.79h-8.14l13.07-67.42h11.29l9.05 46.75q.38 1.86 1.53 9.81l4.97-10.19 26.46-46.37h12.25l-13.06 67.42Zm64.46-32.68q0 6.22-1.92 12.94-1.91 6.72-5.48 11.39-3.56 4.67-8.73 6.99-5.17 2.32-11.77 2.32-9.38 0-14.83-5.65-5.46-5.65-5.46-15.36.19-9.76 3.54-17.32 3.35-7.56 9.29-11.44 5.93-3.87 14.69-3.87 10.04 0 15.36 5.24 5.31 5.23 5.31 14.76Zm-8.9 0q0-13.69-11.87-13.69-6.46 0-10.36 3.33-3.9 3.32-6.05 10.07-2.16 6.75-2.16 13.06 0 7.09 3.07 10.79 3.06 3.71 8.9 3.71 4.92 0 7.92-1.65 2.99-1.65 5.24-5.17 2.24-3.51 3.66-8.97 1.41-5.45 1.65-11.48Zm31.2 33.68q-7.52 0-11.7-4.52-4.19-4.52-4.19-12.41 0-9.72 2.94-18.83 2.95-9.12 8.28-13.52 5.34-4.4 13.61-4.4 5.89 0 9.6 2.48 3.71 2.49 5.24 6.99h.24l1.34-7.75 3.92-20.05h8.61l-11.72 60.34q-1.39 6.75-1.82 10.67h-8.23q0-2.44 1.01-7.66h-.24q-3.5 4.55-7.37 6.61-3.88 2.05-9.52 2.05Zm2.48-6.65q4.74 0 8.12-1.93 3.37-1.94 5.71-5.84 2.35-3.9 3.69-9.76 1.34-5.87 1.34-10.51 0-5.98-3.04-9.3-3.04-3.33-8.45-3.33-5.83 0-9.23 3.47-3.4 3.47-5.46 11.34-2.05 7.87-2.05 14.04 0 5.89 2.24 8.86 2.25 2.96 7.13 2.96ZM175.22 189.19h-23.16l-11.68 59.96h-9.09l11.67-59.96H119.8l1.44-7.46h55.41l-1.43 7.46Zm31.58 7.9-1.58 7.18q-2.11-.63-4.31-.63-5.02 0-9.06 5.27-4.05 5.26-5.48 13.25l-5.27 26.99h-8.61l7.75-39.72 1.2-6.6.86-5.46h8.13l-1.67 10.58h.19q3.16-6.36 6.22-8.95 3.06-2.58 7.08-2.58 2.2 0 4.55.67Zm41.06 52.54q-4.45 0-6.49-1.84-2.03-1.85-2.03-5.48l.24-3.07h-.29q-3.97 6.03-8.23 8.45-4.26 2.42-10.29 2.42-6.7 0-10.88-4.02-4.19-4.02-4.19-10.24 0-8.86 6.34-13.4 6.34-4.55 20.22-4.74l11.1-.14q.91-4.69.91-6.08 0-4.35-2.54-6.44-2.54-2.08-7.03-2.08-5.7 0-8.62 2.04-2.92 2.03-4.21 6.19l-8.52-1.38q2.16-7.04 7.49-10.22 5.34-3.18 14.33-3.18 8.19 0 12.95 3.83 4.76 3.82 4.76 10.28 0 3.07-.91 7.52l-3.54 18.08q-.53 2.3-.53 4.22 0 3.49 3.88 3.49 1.29 0 2.87-.34l-.67 5.36q-3.16.77-6.12.77Zm-6.94-20.15 1.29-5.98-9.52.19q-5.7.15-8.95 1.03-3.26.89-5.05 2.25-1.79 1.36-2.82 3.45-1.03 2.08-1.03 5.04 0 3.59 2.32 5.84t6 2.25q4.65 0 8.38-1.98 3.73-1.99 6.17-5.2 2.44-3.2 3.21-6.89Zm39.43-43.11h-8.62l1.63-8.23h8.61l-1.62 8.23Zm-12.21 62.78h-8.56l10.05-51.78h8.61l-10.1 51.78Zm54.6 0h-8.66l6.03-30.86q.86-4.22.86-7.18 0-7.99-8.56-7.99-6.03 0-10.63 4.59-4.59 4.59-6.12 12.44l-5.65 29h-8.61l7.94-40.72q.96-4.55 1.87-11.06h8.13q0 .53-.5 3.71-.5 3.19-.84 5.15h.15q3.97-5.51 7.96-7.64 4-2.12 9.5-2.12 7.09 0 10.65 3.49 3.57 3.49 3.57 10.1 0 3.06-1.01 7.84l-6.08 31.25ZM171.15 148.15h-9.86l-11.63-27.99h-21.1l-5.41 27.99h-9.14l13.07-67.42h29.28q10.24 0 16.32 4.88t6.08 12.82q0 9-5.17 14.26-5.17 5.27-15.26 6.65l12.82 28.81ZM130 112.93h22.01q8.66 0 13.06-3.61t4.4-10.17q0-5.36-3.56-8.23-3.57-2.87-10.65-2.87h-20.43L130 112.93Zm101.49 11.15h-37.47q-.28 1.68-.43 5.41 0 6.36 3.18 9.76 3.19 3.4 9.6 3.4 4.64 0 8.42-2.3 3.78-2.3 5.89-6.27l6.6 3.02q-3.49 6.26-8.88 9.14-5.38 2.87-13.04 2.87-9.61 0-14.95-5.34-5.34-5.33-5.34-15 0-9.62 3.4-17.25 3.4-7.63 9.57-11.87 6.17-4.23 13.88-4.23 9.81 0 15.26 4.93 5.46 4.93 5.46 13.92 0 5.03-1.15 9.81Zm-36.32-6.6h28.71l.19-3.45q0-5.93-3.08-9.09-3.09-3.16-8.88-3.16-6.41 0-10.79 4.09-4.38 4.09-6.15 11.61Zm85.46 31.15q-4.45 0-6.48-1.84-2.03-1.85-2.03-5.48l.24-3.07h-.29q-3.97 6.03-8.23 8.45-4.26 2.42-10.29 2.42-6.7 0-10.89-4.02-4.18-4.02-4.18-10.24 0-8.86 6.34-13.4 6.34-4.55 20.21-4.74l11.11-.14q.9-4.69.9-6.08 0-4.35-2.53-6.44-2.54-2.08-7.04-2.08-5.69 0-8.61 2.04-2.92 2.03-4.21 6.19l-8.52-1.38q2.16-7.04 7.49-10.22 5.34-3.18 14.33-3.18 8.19 0 12.95 3.83 4.76 3.82 4.76 10.28 0 3.07-.91 7.52l-3.54 18.08q-.53 2.3-.53 4.22 0 3.49 3.88 3.49 1.29 0 2.87-.34l-.67 5.36q-3.16.77-6.13.77Zm-6.93-20.15 1.29-5.98-9.53.19q-5.69.15-8.94 1.03-3.26.89-5.05 2.25-1.8 1.36-2.82 3.45-1.03 2.08-1.03 5.04 0 3.59 2.32 5.84t6 2.25q4.64 0 8.38-1.98 3.73-1.99 6.17-5.2 2.44-3.2 3.21-6.89Zm27.22 19.67h-8.56l13.78-71.01h8.61l-13.83 71.01Z"/><path fill="#f10045" d="M22 25h125v90H22z"/><path d="M61.37 59.69h-10.1v45.51h-8.61V59.69h-7.27v-6.27h7.27v-5.84q0-7.08 3.11-10.19 3.11-3.11 9.52-3.11 3.59 0 6.08.58v6.55q-2.15-.38-3.83-.38-3.3 0-4.78 1.67-1.49 1.68-1.49 6.08v4.64h10.1v6.27ZM76.4 42.42h-8.62v-8.23h8.62v8.23Zm0 62.78h-8.62V53.42h8.62v51.78Zm54.55 0h-9.62L107.4 83.95 93.38 105.2H84.1l18.42-26.61-17.56-25.17h9.52l12.92 20.15 12.83-20.15h9.62L112.29 78.5l18.66 26.7Z"/></svg>